<svg xmlns="http://www.w3.org/2000/svg" viewBox="0 0 56.28 44.99"><defs><style>.cls-1,.cls-2{fill:#ef83ac;}.cls-1{opacity:0.5;}</style></defs><g id="Camada_2" data-name="Camada 2"><g id="Camada_1-2" data-name="Camada 1"><path class="cls-1" d="M46.69,45H9.39c-.85-.13-1.15-.73-1.23-1.49a14.43,14.43,0,0,1,0-2.18c.06-1.48.68-2.09,2.17-2.09,4.41,0,8.82,0,13.24,0h1c.39,0,.59-.16.59-.57V37.3c0-.38-.17-.55-.55-.54-6.74.05-13.49,0-20.23,0A4.45,4.45,0,0,1,1.64,36,3.5,3.5,0,0,1,0,33.17V3.48A3.48,3.48,0,0,1,1.37.84,3.85,3.85,0,0,1,3.8,0H52.1A3.86,3.86,0,0,1,56.27,4.1c0,.68,0,1.37,0,2.05v26c0,.28,0,.56,0,.83.17,2-2.28,3.86-4.28,3.84-6.18-.07-12.35,0-18.52,0-1.1,0-2.34-.41-2.33,1,0,1.67-.17,1.5,1.46,1.51,4.35,0,8.72-.07,13.07,0,1.59,0,2.31.75,2.31,2.28,0,.64,0,1.29,0,1.93C47.94,44.47,47.72,44.74,46.69,45Z"/><path class="cls-2" d="M28.12,31c-7.26,0-14.53,0-21.79,0-.67,0-.82-.18-.81-.83q0-11.85,0-23.7c0-.64.14-.82.81-.82q21.8,0,43.58,0c.63,0,.78.18.78.79q0,11.88,0,23.77c0,.61-.15.79-.78.79C42.65,31,35.39,31,28.12,31Z"/></g></g></svg>