<svg xmlns="http://www.w3.org/2000/svg" viewBox="0 0 39.16 44.87"><defs><style>.cls-1,.cls-2{fill:#91579e;}.cls-2{opacity:0.4;}</style></defs><g id="Camada_2" data-name="Camada 2"><g id="Camada_1-2" data-name="Camada 1"><path class="cls-1" d="M16.44,22.4q-6.65,0-13.28,0a2.83,2.83,0,0,1-2-.5A2.94,2.94,0,0,1,.42,18l4-8.45C5.62,7,6.85,4.49,8,1.92A3,3,0,0,1,11.09,0c6.09,0,12.18,0,18.28,0a2.74,2.74,0,0,1,2.9,1.76c.14.35.29.7.43,1.06C34.77,8,36.85,13.07,38.9,18.2a2.81,2.81,0,0,1-1.49,3.88,6.91,6.91,0,0,1-2.4.28C28.82,22.36,22.63,22.39,16.44,22.4Z"/><path class="cls-2" d="M19.55,44.86H13A2.54,2.54,0,0,1,11,44,9.51,9.51,0,0,1,8.48,37,14,14,0,0,1,10,31.25c.88-1.71,2-3.33,3-5a2,2,0,0,1,1.87-.94c3.29,0,6.58,0,9.87,0a1.55,1.55,0,0,1,1.05.43,19.06,19.06,0,0,1,4.83,10.05,9.71,9.71,0,0,1-1.74,7.43,3.44,3.44,0,0,1-3.12,1.63c-2.07-.07-4.14,0-6.21,0Z"/></g></g></svg>