<svg xmlns="http://www.w3.org/2000/svg" viewBox="0 0 57.78 46.21"><defs><style>.cls-1{isolation:isolate;}.cls-2,.cls-3{fill:#ef7d21;}.cls-2{opacity:0.5;}</style></defs><g id="Camada_2" data-name="Camada 2"><g id="Camada_1-2" data-name="Camada 1"><g class="cls-1"><path class="cls-2" d="M28.94,34.66H22.43a.83.83,0,0,1-.93-.57,29.33,29.33,0,0,0-3.85-6.84c-.67-.89-1.41-1.72-2-2.64A15,15,0,0,1,13,15.16,15.52,15.52,0,0,1,21,2a14.75,14.75,0,0,1,8-2A15.59,15.59,0,0,1,42.78,8.15a14.54,14.54,0,0,1,2,6.78,15.94,15.94,0,0,1-3.88,11.4,25.79,25.79,0,0,0-4.63,8c-.12.34-.3.39-.62.39ZM20.18,17.29A1.39,1.39,0,0,0,21.62,16c0-.23.06-.46.08-.69a7.05,7.05,0,0,1,2.82-5.17A7.75,7.75,0,0,1,29,8.61a1.45,1.45,0,0,0,1.39-1.54,1.49,1.49,0,0,0-1.66-1.35c-.55,0-1.1.08-1.63.17A9.79,9.79,0,0,0,21.59,8.8a10.16,10.16,0,0,0-2.87,6.91A1.44,1.44,0,0,0,20.18,17.29Z"/><path class="cls-3" d="M28.87,37.66c2.19,0,4.37,0,6.56,0,.46,0,.66.11.63.62,0,.88.06,1.77,0,2.64a4.56,4.56,0,0,1-.51,1.73,18.25,18.25,0,0,1-1.4,2.17,3.07,3.07,0,0,1-2.65,1.39H26.24a3.11,3.11,0,0,1-2.6-1.38,22.6,22.6,0,0,1-1.44-2.21A4.48,4.48,0,0,1,21.73,41c-.08-.91,0-1.83,0-2.75,0-.44.14-.57.57-.57C24.46,37.67,26.67,37.66,28.87,37.66Z"/><path class="cls-3" d="M52.74,19.43c-.89,0-1.79,0-2.69,0a2.13,2.13,0,1,1-.11-4.25c1.88,0,3.77,0,5.66,0a2.07,2.07,0,0,1,2,1.35,2,2,0,0,1-.38,2.17,2.08,2.08,0,0,1-1.64.73C54.65,19.44,53.7,19.43,52.74,19.43Z"/><path class="cls-3" d="M5,19.43c-.9,0-1.8,0-2.7,0a2.13,2.13,0,1,1-.11-4.25c1.86,0,3.73,0,5.6,0a2.13,2.13,0,0,1,1.69,3.51,2,2,0,0,1-1.63.74C6.89,19.45,5.94,19.43,5,19.43Z"/><path class="cls-3" d="M10.52,9a4.84,4.84,0,0,1-.87-.32c-1.67-1-3.34-1.9-5-2.88A2.06,2.06,0,0,1,3.75,3,2,2,0,0,1,6.22,1.9a5,5,0,0,1,.91.43c1.51.86,3,1.75,4.53,2.61a2.2,2.2,0,0,1,1.11,2.31A2.2,2.2,0,0,1,10.52,9Z"/><path class="cls-3" d="M54.15,30.66a2.1,2.1,0,0,1-2.74,2,2.7,2.7,0,0,1-.53-.22c-1.59-.91-3.17-1.84-4.75-2.75A2.12,2.12,0,0,1,45.9,26a2,2,0,0,1,2-.13Q50.63,27.41,53.3,29A1.84,1.84,0,0,1,54.15,30.66Z"/><path class="cls-3" d="M5.65,32.87a2.15,2.15,0,0,1-2-1.43,2,2,0,0,1,.63-2.33,2.2,2.2,0,0,1,.43-.3C6.32,27.89,7.9,27,9.5,26.06a2.11,2.11,0,1,1,2.09,3.66l-3.43,2c-.41.23-.81.5-1.24.7S6.08,32.72,5.65,32.87Z"/><path class="cls-3" d="M45,6.77a2,2,0,0,1,1.17-1.86l4-2.32A9.93,9.93,0,0,1,51.28,2a2.12,2.12,0,0,1,2.63,1,2,2,0,0,1-.7,2.74Q50.69,7.2,48.14,8.62A2.07,2.07,0,0,1,45,6.77Z"/></g></g></g></svg>